<svg xmlns="http://www.w3.org/2000/svg" style="display: none;"><symbol id="right" viewBox="0 0 268.832 268.832"><title>right</title><path d="M265.171,125.577l-80-80c-4.881-4.881-12.797-4.881-17.678,0c-4.882,4.882-4.882,12.796,0,17.678l58.661,58.661H12.5 c-6.903,0-12.5,5.597-12.5,12.5c0,6.902,5.597,12.5,12.5,12.5h213.654l-58.659,58.661c-4.882,4.882-4.882,12.796,0,17.678 c2.44,2.439,5.64,3.661,8.839,3.661s6.398-1.222,8.839-3.661l79.998-80C270.053,138.373,270.053,130.459,265.171,125.577z"/></symbol><symbol id="vk-social-logotype" viewBox="0 0 97.75 97.75"><title>vk-social-logotype</title><path d="M48.875,0C21.883,0,0,21.882,0,48.875S21.883,97.75,48.875,97.75S97.75,75.868,97.75,48.875S75.867,0,48.875,0z M73.667,54.161c2.278,2.225,4.688,4.319,6.733,6.774c0.906,1.086,1.76,2.209,2.41,3.472c0.928,1.801,0.09,3.776-1.522,3.883 l-10.013-0.002c-2.586,0.214-4.644-0.829-6.379-2.597c-1.385-1.409-2.67-2.914-4.004-4.371c-0.545-0.598-1.119-1.161-1.803-1.604 c-1.365-0.888-2.551-0.616-3.333,0.81c-0.797,1.451-0.979,3.059-1.055,4.674c-0.109,2.361-0.821,2.978-3.19,3.089 c-5.062,0.237-9.865-0.531-14.329-3.083c-3.938-2.251-6.986-5.428-9.642-9.025c-5.172-7.012-9.133-14.708-12.692-22.625 c-0.801-1.783-0.215-2.737,1.752-2.774c3.268-0.063,6.536-0.055,9.804-0.003c1.33,0.021,2.21,0.782,2.721,2.037 c1.766,4.345,3.931,8.479,6.644,12.313c0.723,1.021,1.461,2.039,2.512,2.76c1.16,0.796,2.044,0.533,2.591-0.762 c0.35-0.823,0.501-1.703,0.577-2.585c0.26-3.021,0.291-6.041-0.159-9.05c-0.28-1.883-1.339-3.099-3.216-3.455 c-0.956-0.181-0.816-0.535-0.351-1.081c0.807-0.944,1.563-1.528,3.074-1.528l11.313-0.002c1.783,0.35,2.183,1.15,2.425,2.946 l0.01,12.572c-0.021,0.695,0.349,2.755,1.597,3.21c1,0.33,1.66-0.472,2.258-1.105c2.713-2.879,4.646-6.277,6.377-9.794 c0.764-1.551,1.423-3.156,2.063-4.764c0.476-1.189,1.216-1.774,2.558-1.754l10.894,0.013c0.321,0,0.647,0.003,0.965,0.058 c1.836,0.314,2.339,1.104,1.771,2.895c-0.894,2.814-2.631,5.158-4.329,7.508c-1.82,2.516-3.761,4.944-5.563,7.471 C71.48,50.992,71.611,52.155,73.667,54.161z"/></symbol><symbol id="facebook-logo" viewBox="0 0 97.75 97.75"><title>facebook-logo</title><path d="M48.875,0C21.882,0,0,21.882,0,48.875S21.882,97.75,48.875,97.75S97.75,75.868,97.75,48.875S75.868,0,48.875,0z M67.521,24.89l-6.76,0.003c-5.301,0-6.326,2.519-6.326,6.215v8.15h12.641L67.07,52.023H54.436v32.758H41.251V52.023H30.229V39.258 h11.022v-9.414c0-10.925,6.675-16.875,16.42-16.875l9.851,0.015V24.89L67.521,24.89z"/></symbol><symbol id="instagram-social-network-logo-of-photo-camera" viewBox="0 0 97.75 97.75"><title>instagram-social-network-logo-of-photo-camera</title><ellipse cx="48.944" cy="48.719" rx="14.465" ry="14.017"/><path d="M71.333,49.501c0,11.981-10.024,21.692-22.389,21.692s-22.389-9.711-22.389-21.692c0-2.147,0.324-4.221,0.924-6.18h-6.616 v30.427c0,1.576,1.288,2.863,2.863,2.863h50.159c1.576,0,2.865-1.287,2.865-2.863V43.321h-6.341 C71.008,45.28,71.333,47.354,71.333,49.501z"/><path d="M65.332,35.11h8.141c1.784,0,3.242-1.458,3.242-3.242v-7.762c0-1.785-1.458-3.243-3.242-3.243h-8.141 c-1.785,0-3.243,1.458-3.243,3.243v7.762C62.088,33.651,63.547,35.11,65.332,35.11z"/><path d="M48.875,0C21.882,0,0,21.882,0,48.875S21.882,97.75,48.875,97.75S97.75,75.868,97.75,48.875S75.868,0,48.875,0z M75.645,84.891H22.106c-5.087,0-9.246-3.765-9.246-9.244V22.105c0-5.481,4.159-9.245,9.246-9.245h53.539 c5.086,0,9.246,3.764,9.246,9.245v53.542C84.891,81.126,80.73,84.891,75.645,84.891z"/></symbol></svg>